<svg width="820" height="165" viewBox="0 0 820 165" fill="none" xmlns="http://www.w3.org/2000/svg">
<g clip-path="url(#clip0_5_36)">
<path d="M41.497 91.6266C18.6017 91.6266 -0.000793457 73.0242 -0.000793457 50.1515C-0.000793457 27.2789 18.6017 8.65369 41.497 8.65369C64.3924 8.65369 82.9949 27.2562 82.9949 50.1515C82.9949 73.0469 64.3924 91.6493 41.497 91.6493V91.6266ZM41.497 20.3739C25.0751 20.3739 11.7194 33.7296 11.7194 50.1515C11.7194 66.5735 25.0751 79.9291 41.497 79.9291C57.919 79.9291 71.2746 66.5735 71.2746 50.1515C71.2746 33.7296 57.919 20.3739 41.497 20.3739Z" fill="#C6A445"/>
<path d="M175.803 8.69948L139.892 80.1793L122.38 56.1937C133.442 53.6952 140.778 44.9959 140.778 33.0485C140.778 29.437 140.029 19.6247 130.943 13.5148C125.605 9.9033 119.132 8.65405 109.047 8.65405H74.3635L82.8129 20.3516H111.296C117.519 20.3516 128.581 21.4646 128.581 33.1621C128.581 46.336 114.408 46.7221 110.637 46.7221H101.892L134.396 91.627H148.16L175.28 36.4328L187.591 59.6689H177.529L171.669 71.6163H192.702L201.401 91.6497H215.074L175.803 8.69948Z" fill="#C6A445"/>
<path d="M287.917 141.095C288.894 141.39 289.712 141.799 290.416 142.321C291.097 142.844 291.642 143.48 292.006 144.229C292.369 144.979 292.551 145.819 292.551 146.75C292.551 147.568 292.437 148.272 292.21 148.863C291.983 149.453 291.688 149.998 291.324 150.453C290.961 150.907 290.552 151.293 290.098 151.611C289.644 151.929 289.189 152.179 288.69 152.383C289.394 152.588 290.075 152.86 290.711 153.201C291.347 153.542 291.892 153.928 292.346 154.405C292.801 154.882 293.187 155.427 293.459 156.063C293.732 156.722 293.868 157.448 293.868 158.289C293.868 159.334 293.664 160.265 293.255 161.105C292.846 161.946 292.233 162.627 291.461 163.195C290.688 163.763 289.757 164.194 288.667 164.49C287.577 164.785 286.373 164.944 285.055 164.944H274.289V140.663H284.601C285.805 140.663 286.895 140.799 287.849 141.095H287.917ZM288.258 150.362C289.303 149.612 289.825 148.522 289.825 147.091C289.825 145.864 289.371 144.888 288.44 144.161C287.508 143.434 286.191 143.093 284.465 143.093H277.106V151.497H284.26C285.896 151.497 287.236 151.134 288.281 150.384L288.258 150.362ZM289.575 161.355C290.643 160.583 291.165 159.515 291.165 158.107C291.165 156.699 290.62 155.722 289.53 154.995C288.44 154.269 286.85 153.905 284.715 153.905H277.06V162.514H285.192C287.031 162.514 288.485 162.127 289.553 161.355H289.575Z" fill="white"/>
<path d="M316.945 143.162H302.136V151.452H315.378V153.951H302.136V162.445H317.127V164.944H299.41V140.663H316.968V143.162H316.945Z" fill="white"/>
<path d="M325.599 140.663V164.944H322.851V140.663H325.599Z" fill="white"/>
<path d="M346.109 140.663V164.944H343.361V140.663H346.109Z" fill="white"/>
<path d="M371.094 140.663H373.775V164.944H371.594L355.922 145.024V164.944H353.241V140.663H355.808L371.094 160.129V140.663Z" fill="white"/>
<path d="M389.788 164.944H387.04V143.184H378.885V140.663H397.919V143.184H389.765V164.944H389.788Z" fill="white"/>
<path d="M420.656 143.162H405.846V151.452H419.088V153.951H405.846V162.445H420.837V164.944H403.121V140.663H420.678V143.162H420.656Z" fill="white"/>
<path d="M443.074 164.944L436.033 155.518H429.105V164.944H426.357V140.663H436.805C438.145 140.663 439.349 140.845 440.439 141.185C441.507 141.526 442.438 142.026 443.188 142.662C443.96 143.298 444.551 144.07 444.959 144.956C445.368 145.842 445.573 146.841 445.573 147.931C445.573 148.954 445.414 149.862 445.096 150.657C444.778 151.452 444.323 152.156 443.733 152.747C443.142 153.337 442.438 153.837 441.643 154.223C440.825 154.609 439.962 154.905 439.008 155.063L446.458 164.989H443.097L443.074 164.944ZM441.189 144.456C440.099 143.616 438.577 143.184 436.601 143.184H429.083V153.065H436.555C437.464 153.065 438.282 152.951 439.054 152.724C439.826 152.497 440.485 152.156 441.03 151.725C441.598 151.293 442.029 150.771 442.325 150.135C442.643 149.499 442.802 148.795 442.802 148.022C442.802 146.5 442.256 145.297 441.166 144.456H441.189Z" fill="white"/>
<path d="M451.432 140.663H454.181V162.423H467.854V164.967H451.455V140.686L451.432 140.663Z" fill="white"/>
<path d="M495.52 164.944H492.567L489.728 158.516H476.508L473.624 164.944H470.807L481.869 140.481H484.435L495.497 164.944H495.52ZM483.141 143.707L477.599 156.086H488.66L483.141 143.707Z" fill="white"/>
<path d="M520.982 164.944H517.552L508.217 153.178L503.038 158.425V164.944H500.29V140.663H503.038V155.154L516.984 140.663H520.528L510.125 151.27L520.982 164.944Z" fill="white"/>
<path d="M542.787 143.162H527.978V151.452H541.22V153.951H527.978V162.445H542.969V164.944H525.252V140.663H542.81V143.162H542.787Z" fill="white"/>
<path d="M566.341 140.663H569.021V164.944H566.841L551.168 145.024V164.944H548.488V140.663H551.055L566.341 160.129V140.663Z" fill="white"/>
<path d="M301.705 88.7875H315.469L342.589 33.5933L354.9 56.8294H344.838L338.978 68.7768H360.011L368.71 88.8102H382.384L343.089 5.85999C329.302 33.5025 315.492 61.145 301.705 88.7875Z" fill="white"/>
<path d="M605.795 4.58765L591.599 4.63307L563.866 61.6443L551.805 37.5224L545.763 25.4615L536.7 4.8375L522.595 4.88292L563.434 90.2408C577.562 61.6897 591.667 33.1387 605.795 4.58765Z" fill="white"/>
<path d="M256.187 6.20044H268.293V77.7257H310.858V88.7873H256.187V6.20044Z" fill="white"/>
<path d="M391.628 6.42792H402.258V46.1087H402.644C404.802 42.9287 407.096 40.0441 409.14 37.3639L434.284 6.42792H447.458L417.681 41.4069L449.798 88.7422H437.192L410.14 48.3573L402.235 57.3746V88.7195H391.606V6.42792H391.628Z" fill="white" stroke="white" stroke-width="2.27136" stroke-miterlimit="10"/>
<path d="M462.426 5.58704H517.916V16.8076H474.714V41.838H507.286V53.0586H474.714V78.2026H517.916V89.4231H462.426V5.58704Z" fill="white" stroke="white" stroke-width="0.567841" stroke-miterlimit="10"/>
<path d="M641.41 5.65485H698.33V17.1707H654.016V42.8371H687.428V54.3302H654.016V80.1329H698.33V91.626H641.41V5.65485Z" fill="white" stroke="white" stroke-width="0.567841" stroke-miterlimit="10"/>
<path d="M613.018 90.6495V6.01843H623.466V90.6495H613.018Z" fill="white" stroke="white" stroke-width="2.27136" stroke-miterlimit="10"/>
<path d="M762.451 3.22473L785.778 64.6197L807.674 6.54092H817.895L785.778 92.1941L762.451 30.6628L739.124 92.1941L706.939 6.54092H717.16L739.215 65.2784L762.428 3.22473H762.451Z" fill="white" stroke="white" stroke-width="2.27136" stroke-miterlimit="10"/>
<path d="M11.72 150.864H260.911" stroke="#C6A445" stroke-width="1.13568" stroke-miterlimit="10"/>
<path d="M578.357 150.864H810.332" stroke="#C6A445" stroke-width="1.13568" stroke-miterlimit="10"/>
</g>
<defs>
<clipPath id="clip0_5_36">
<rect width="819.531" height="164.947" fill="white"/>
</clipPath>
</defs>
</svg>
